<?xml version="1.0" standalone="no"?>
<!DOCTYPE svg PUBLIC "-//W3C//DTD SVG 20010904//EN"
 "http://www.w3.org/TR/2001/REC-SVG-20010904/DTD/svg10.dtd">
<svg version="1.0" xmlns="http://www.w3.org/2000/svg"
 width="3473.000000pt" height="869.000000pt" viewBox="0 0 3473.000000 869.000000"
 preserveAspectRatio="xMidYMid meet">
<metadata>
Created by potrace 1.15, written by Peter Selinger 2001-2017
</metadata>
<g transform="translate(0.000000,869.000000) scale(0.100000,-0.100000)"
fill="#000000" stroke="none">
<path d="M10761 7979 c-129 -22 -253 -92 -376 -214 -114 -113 -209 -255 -314
-469 -270 -549 -435 -1202 -533 -2106 -16 -149 -17 -780 -1 -870 l12 -65 -72
-69 c-232 -222 -536 -382 -790 -416 -157 -21 -340 16 -437 89 -44 33 -120 116
-120 132 0 3 39 16 88 29 342 90 607 224 763 387 159 167 229 342 229 575 -1
201 -53 343 -169 458 -126 125 -257 174 -471 174 -292 0 -511 -90 -729 -299
-198 -191 -331 -459 -377 -760 -11 -69 -15 -152 -12 -269 l3 -169 -60 -54
c-96 -86 -201 -151 -293 -180 -70 -21 -96 -25 -171 -21 -75 3 -99 9 -154 36
-155 76 -211 227 -187 503 14 170 22 213 200 1044 83 391 160 755 170 810 50
277 53 561 6 739 -72 278 -236 452 -482 513 -103 25 -330 23 -452 -5 -239 -55
-459 -190 -634 -389 -140 -160 -308 -455 -423 -743 -32 -79 -44 -102 -41 -75
52 360 43 571 -33 785 -76 215 -236 370 -441 426 -84 24 -303 24 -406 1 -350
-79 -641 -310 -867 -689 -80 -134 -183 -352 -261 -548 -36 -91 -65 -158 -66
-150 0 8 6 49 14 90 27 140 65 435 72 555 22 410 -121 674 -406 746 -86 22
-276 17 -385 -10 -338 -83 -690 -354 -926 -714 -70 -106 -100 -181 -107 -269
-7 -92 11 -151 62 -204 52 -54 99 -65 164 -38 38 16 64 41 147 144 246 305
471 476 643 487 87 6 127 -15 162 -83 24 -46 25 -57 23 -199 -3 -311 -79 -890
-263 -1997 -106 -634 -114 -702 -114 -933 -1 -170 2 -208 18 -253 24 -70 63
-114 128 -143 47 -21 68 -24 184 -24 126 0 133 1 190 30 53 27 62 37 92 95 42
85 65 179 97 402 126 882 282 1541 489 2068 79 200 201 445 284 570 213 321
505 502 721 446 282 -72 279 -325 -19 -1931 -162 -872 -195 -1105 -187 -1335
6 -205 33 -267 136 -318 46 -22 72 -27 151 -30 231 -10 334 62 390 270 12 44
39 205 61 356 49 344 88 581 140 835 146 727 374 1369 610 1722 130 195 311
360 456 415 80 31 192 32 248 3 83 -44 127 -118 145 -244 22 -148 4 -266 -150
-969 -155 -712 -156 -717 -180 -845 -67 -360 -87 -657 -56 -832 42 -241 161
-439 338 -563 90 -63 189 -104 318 -130 90 -19 126 -21 260 -17 112 4 176 11
232 26 190 52 371 156 542 312 l56 51 22 -28 c73 -98 214 -206 343 -265 272
-123 699 -133 1015 -24 190 66 415 197 584 338 l80 66 38 -70 c104 -191 214
-297 378 -362 89 -35 165 -47 294 -47 255 0 461 80 695 268 36 29 67 49 71 45
3 -5 16 -40 28 -80 47 -150 128 -224 255 -231 90 -6 165 11 216 48 59 43 111
158 165 365 77 291 164 518 291 762 178 341 329 488 376 365 14 -37 -2 -173
-56 -457 -59 -311 -79 -479 -71 -584 13 -169 58 -285 145 -372 95 -94 197
-129 376 -129 269 0 465 81 722 297 l51 44 39 -73 c52 -100 138 -190 220 -230
83 -41 205 -50 299 -23 211 60 386 267 504 593 22 59 39 105 39 102 1 -6 -39
-270 -70 -475 l-23 -150 -168 -134 c-440 -350 -742 -652 -929 -930 -150 -222
-220 -421 -235 -660 -18 -299 139 -526 411 -596 78 -20 241 -19 324 1 140 34
285 124 395 246 273 300 530 973 691 1808 l28 145 427 287 c235 158 430 284
434 281 3 -3 6 -23 6 -43 0 -56 28 -207 51 -277 47 -143 119 -203 249 -211
221 -13 292 64 384 413 52 197 94 324 160 485 164 398 379 710 550 797 62 31
131 35 170 10 93 -61 85 -280 -15 -407 -55 -70 -141 -131 -284 -201 -69 -33
-138 -75 -160 -96 -74 -72 -95 -161 -75 -318 24 -196 83 -319 215 -451 76 -77
106 -98 185 -138 156 -76 223 -90 440 -90 159 0 196 3 265 22 163 45 319 142
499 313 122 115 264 283 292 343 69 151 49 387 -37 431 -36 19 -92 19 -129 0
-16 -8 -82 -74 -147 -147 -303 -340 -420 -421 -603 -421 -110 1 -180 26 -254
94 -58 52 -106 135 -106 180 0 23 11 33 73 69 231 136 385 299 467 497 91 219
93 509 5 672 -104 191 -264 286 -480 286 -113 -1 -181 -17 -289 -72 -318 -159
-578 -478 -780 -959 -26 -60 -51 -118 -56 -129 -7 -14 -9 64 -5 243 l5 263
118 132 c446 497 771 957 939 1328 111 247 173 477 194 725 27 308 -35 541
-184 701 -218 233 -600 172 -863 -137 -192 -225 -382 -629 -522 -1111 -170
-579 -292 -1447 -292 -2071 l0 -177 -172 -117 c-95 -64 -262 -182 -370 -261
-108 -78 -199 -143 -201 -143 -4 0 9 79 137 855 121 731 131 811 105 869 -35
76 -268 88 -400 21 -86 -44 -118 -103 -193 -361 -182 -628 -397 -1082 -568
-1200 -75 -52 -145 -27 -169 60 -34 123 37 609 161 1107 59 236 71 335 46 373
-37 57 -142 78 -287 56 -151 -22 -226 -75 -284 -203 -54 -117 -147 -462 -185
-682 -24 -142 -50 -383 -50 -469 l0 -65 -87 -93 c-163 -173 -248 -242 -337
-272 -63 -22 -116 -14 -155 23 -76 71 -67 229 39 727 96 444 128 716 100 832
-19 82 -62 137 -133 172 -124 60 -279 48 -456 -36 -118 -56 -205 -117 -306
-219 -191 -191 -342 -423 -482 -743 l-65 -147 7 85 c9 112 46 320 90 500 86
353 98 409 99 472 1 56 -3 71 -20 88 -52 53 -271 50 -394 -6 -101 -45 -155
-117 -204 -272 -88 -280 -144 -595 -166 -941 l-11 -164 -52 -59 c-67 -76 -197
-192 -263 -234 -85 -54 -194 -86 -300 -88 -82 -1 -96 2 -149 29 -75 38 -125
103 -158 204 -48 144 -52 126 68 296 577 814 974 1697 1091 2422 21 134 30
463 15 588 -54 460 -270 680 -610 624z m38 -493 c65 -34 91 -120 98 -322 21
-579 -217 -1325 -680 -2139 -87 -153 -85 -150 -91 -144 -7 7 13 356 29 529 90
927 378 1980 568 2074 40 19 42 19 76 2z m6522 -2 c43 -22 75 -98 89 -209 50
-399 -184 -1006 -596 -1546 -40 -52 -83 -104 -95 -115 l-21 -19 7 50 c128 941
366 1754 538 1839 40 19 41 19 78 0z m-8745 -2370 c144 -69 146 -296 4 -457
-97 -110 -324 -231 -495 -263 l-35 -6 0 59 c0 82 27 234 57 318 64 181 170
308 292 351 50 18 136 17 177 -2z m5925 -2565 c-118 -462 -227 -741 -361 -921
-96 -127 -196 -164 -265 -95 -127 127 -31 460 224 777 91 114 434 450 447 437
2 -2 -18 -91 -45 -198z"/>
<path d="M29824 7975 c-268 -58 -473 -323 -649 -837 -130 -380 -225 -821 -285
-1324 -11 -92 -21 -168 -22 -169 -2 -1 -38 -8 -81 -14 -132 -21 -246 -59 -382
-126 -158 -79 -271 -162 -395 -292 -256 -266 -416 -634 -437 -1000 l-6 -103
-96 -96 c-156 -157 -269 -220 -351 -195 -21 6 -50 25 -64 41 -69 82 -62 194
40 690 30 146 80 384 110 530 57 277 76 439 55 478 -18 33 -63 52 -144 58
-139 12 -279 -30 -330 -98 -44 -59 -65 -112 -121 -304 -169 -582 -350 -984
-520 -1157 -66 -67 -109 -84 -159 -64 -56 24 -71 78 -64 230 10 211 74 582
162 937 64 257 77 356 51 394 -37 57 -142 78 -287 56 -151 -22 -226 -75 -284
-203 -54 -117 -147 -462 -185 -682 -24 -138 -50 -383 -50 -463 l0 -59 -127
-124 c-71 -69 -157 -144 -193 -167 -117 -77 -282 -113 -415 -92 -212 33 -335
174 -390 445 -33 162 -49 442 -38 690 l8 190 410 6 c441 6 475 10 590 64 58
28 129 98 151 150 22 53 28 137 14 195 -22 90 -20 90 -389 90 l-314 0 124 128
c225 230 353 432 439 691 169 509 87 1008 -188 1143 -64 32 -71 33 -187 33
-106 -1 -128 -4 -189 -28 -113 -44 -185 -95 -297 -207 -309 -309 -552 -877
-687 -1605 l-28 -150 -184 -5 c-208 -6 -232 -12 -274 -78 -35 -53 -49 -119
-44 -214 5 -105 26 -151 82 -181 36 -19 62 -22 201 -27 152 -5 160 -6 158 -25
-1 -11 -5 -125 -8 -255 -24 -819 154 -1306 549 -1500 144 -71 228 -91 416 -97
313 -10 513 58 768 263 51 41 95 74 97 74 2 0 21 -32 42 -72 52 -100 138 -190
221 -230 63 -31 73 -33 177 -33 108 0 113 1 188 38 89 44 179 123 243 213 58
81 137 248 167 353 l24 84 7 -94 c26 -336 126 -519 315 -579 125 -39 354 -19
516 45 113 46 207 106 371 239 l32 26 28 -43 c75 -113 197 -209 326 -255 59
-20 97 -26 195 -30 296 -11 477 89 736 406 l26 33 27 -53 c158 -314 415 -445
720 -368 145 36 308 132 475 279 l57 50 33 -67 c95 -186 264 -282 497 -282
118 0 199 19 318 75 108 50 190 104 286 188 38 34 85 74 102 89 l33 27 52 -64
c117 -146 301 -258 486 -296 83 -17 124 -20 245 -16 88 3 168 12 205 22 86 23
250 105 325 163 80 61 194 180 247 258 79 116 168 318 189 429 3 19 10 37 14
40 4 2 61 9 126 15 151 14 341 51 469 91 79 25 107 39 136 68 47 47 69 119 69
226 0 151 -46 235 -129 235 -20 0 -104 -15 -187 -34 -160 -37 -444 -82 -444
-71 0 1 -7 41 -15 88 -29 168 -103 352 -189 472 -57 80 -165 183 -241 230 -38
24 -113 59 -165 77 -94 33 -97 33 -275 32 -198 0 -257 -11 -408 -74 -283 -118
-531 -409 -631 -741 -51 -169 -60 -240 -61 -474 l-1 -220 -100 -101 c-188
-191 -297 -233 -389 -153 -45 40 -65 104 -72 224 -8 137 15 301 93 685 116
569 134 711 94 775 -49 80 -237 108 -396 60 -54 -16 -116 -72 -148 -132 -82
-160 -246 -985 -246 -1242 0 -40 -6 -50 -72 -124 -190 -210 -364 -310 -485
-278 -48 13 -115 81 -144 145 -27 61 -57 196 -67 300 l-8 89 109 196 c502 901
821 1766 887 2401 23 221 7 506 -36 650 -40 137 -144 280 -241 333 -100 54
-202 68 -319 42z m103 -514 c43 -63 62 -176 63 -357 0 -338 -80 -722 -255
-1224 -84 -239 -295 -744 -303 -722 -11 34 49 754 93 1112 106 862 279 1375
402 1191z m-5188 -296 c36 -18 59 -74 72 -179 46 -363 -176 -879 -514 -1193
-55 -50 -62 -54 -65 -36 -4 27 49 353 83 510 105 488 237 826 350 895 36 22
39 22 74 3z m4086 -2272 c-7 -249 3 -474 31 -657 17 -114 22 -98 -81 -231
-121 -155 -210 -222 -311 -232 -169 -18 -261 91 -271 322 -20 416 198 827 523
988 71 35 93 45 107 46 5 1 6 -106 2 -236z m3637 89 c-6 -141 7 -224 51 -342
48 -126 125 -232 229 -315 l37 -30 -24 -92 c-31 -120 -86 -224 -155 -294 -158
-158 -375 -152 -500 15 -96 129 -115 204 -114 456 1 177 3 204 27 292 34 128
87 228 162 304 79 80 163 119 266 123 l26 1 -5 -118z"/>
<path d="M21531 7519 c-47 -5 -139 -20 -205 -34 -560 -114 -942 -430 -1064
-883 -23 -88 -26 -114 -26 -292 -1 -222 13 -296 83 -445 85 -180 264 -366 468
-489 86 -51 340 -172 503 -239 74 -30 198 -81 275 -112 467 -191 638 -316 705
-514 36 -108 23 -257 -34 -369 -74 -146 -254 -262 -485 -312 -194 -42 -453
-48 -687 -14 -203 29 -338 82 -435 171 -104 97 -124 190 -94 433 10 78 15 164
12 190 -17 144 -128 225 -307 225 -66 -1 -96 -6 -135 -23 -58 -27 -117 -80
-150 -137 -86 -147 -108 -443 -50 -671 101 -400 462 -648 1065 -731 172 -23
566 -23 739 1 675 92 1109 403 1231 882 43 168 49 393 15 543 -22 92 -62 186
-113 266 -59 92 -227 258 -327 324 -138 89 -385 205 -850 397 -324 133 -452
205 -573 319 -130 122 -175 222 -174 390 0 301 195 498 566 571 110 21 378 30
491 15 126 -17 196 -37 301 -87 194 -92 258 -209 234 -425 -23 -196 -24 -315
-6 -364 71 -185 358 -237 505 -93 96 95 140 235 148 470 9 235 -22 380 -113
531 -54 88 -212 241 -311 300 -168 100 -386 171 -621 201 -135 17 -436 20
-581 5z"/>
<path d="M30810 6720 c-149 -27 -278 -119 -338 -240 -24 -50 -27 -66 -27 -165
0 -98 3 -116 26 -166 15 -31 43 -73 64 -94 133 -132 461 -138 634 -11 181 133
215 438 64 577 -96 88 -263 127 -423 99z"/>
</g>
</svg>
